<?xml version="1.0" encoding="utf-8"?>
<!-- Generator: Adobe Illustrator 24.0.1, SVG Export Plug-In . SVG Version: 6.00 Build 0)  -->
<svg version="1.1" id="레이어_1" xmlns="http://www.w3.org/2000/svg" xmlns:xlink="http://www.w3.org/1999/xlink" x="0px"
	 y="0px" viewBox="0 0 30 35" style="enable-background:new 0 0 30 35;" xml:space="preserve">
<style type="text/css">
	.st0{fill:#fff;}
</style>
<g>
	<g>
		<g>
			<g>
				<path class="st0" d="M26.8,28.9c-0.8,0-1.6-0.3-2.4-0.6c-0.9-0.4-1.9-0.7-3-0.7c-0.9,0-1.7,0.3-2.4,0.8
					c-0.5,0.3-0.9,0.5-1.5,0.5c-0.8,0-1.6-0.3-2.4-0.6c-0.9-0.4-1.9-0.7-3-0.7c-0.9,0-1.7,0.3-2.4,0.8c-0.5,0.3-0.9,0.5-1.5,0.5
					c-0.8,0-1.6-0.3-2.4-0.6c-0.9-0.4-1.9-0.7-3-0.7c-0.9,0-1.7,0.3-2.4,0.8l-0.3,0.2v5.5l1.3-1c0.5-0.4,0.9-0.5,1.5-0.5
					c0.8,0,1.6,0.3,2.4,0.6c0.9,0.4,1.9,0.7,3,0.7c0.8,0,1.6-0.3,2.4-0.8c0.5-0.4,0.9-0.5,1.5-0.5c0.7,0,1.6,0.3,2.4,0.6
					c0.9,0.4,1.9,0.7,3,0.7c0.8,0,1.6-0.3,2.4-0.8c0.5-0.4,0.9-0.5,1.5-0.5c0.8,0,1.6,0.3,2.4,0.6c0.9,0.4,1.9,0.7,3,0.7
					c0.8,0,1.6-0.3,2.4-0.8l0.3-0.2v-5.5l-1.3,1C27.8,28.7,27.4,28.9,26.8,28.9z"/>
			</g>
			<g>
				<path class="st0" d="M28.3,1.9c-0.5,0.3-0.9,0.5-1.5,0.5c-0.7,0-1.5-0.3-2.4-0.6c-0.9-0.4-1.9-0.7-3-0.7c-0.8,0-1.7,0.3-2.4,0.8
					c-0.5,0.3-0.9,0.5-1.5,0.5c-0.7,0-1.5-0.3-2.4-0.6c-0.9-0.4-1.9-0.7-3-0.7c-0.8,0-1.7,0.3-2.4,0.8C9.2,2.2,8.8,2.4,8.2,2.4
					c-0.7,0-1.5-0.3-2.4-0.6c-0.9-0.4-1.9-0.7-3-0.7C2,1.1,1.1,1.4,0.4,1.9L0.1,2.1v5.5l1.3-1c0.5-0.3,0.9-0.5,1.5-0.5
					c0.7,0,1.5,0.3,2.4,0.6c0.9,0.4,1.9,0.7,3,0.7c0.9,0,1.7-0.3,2.4-0.8c0.5-0.3,0.9-0.5,1.5-0.5c0.7,0,1.5,0.3,2.4,0.6
					c0.9,0.4,1.9,0.7,3,0.7c0.9,0,1.7-0.3,2.4-0.8c0.5-0.3,0.9-0.5,1.5-0.5c0.7,0,1.5,0.3,2.4,0.6c0.9,0.4,1.9,0.7,3,0.7
					c0.9,0,1.7-0.3,2.5-0.8l0.3-0.2V0.9L28.3,1.9z"/>
			</g>
			<g>
				<path class="st0" d="M26.8,16c-0.7,0-1.5-0.3-2.4-0.6c-0.9-0.4-1.9-0.7-3-0.7c-0.8,0-1.7,0.3-2.4,0.8l0,0
					c-0.5,0.4-0.9,0.5-1.4,0.5c-0.7,0-1.5-0.3-2.4-0.6c-0.9-0.4-1.9-0.7-3-0.7c-0.8,0-1.7,0.3-2.4,0.8l0,0C9.3,15.9,8.9,16,8.4,16
					c-0.7,0-1.5-0.3-2.4-0.6c-0.9-0.4-1.9-0.7-3-0.7c-0.8,0-1.7,0.3-2.4,0.8l-0.3,0.2v5.5l1.3-1c0.5-0.4,0.9-0.5,1.4-0.5
					c0.7,0,1.5,0.3,2.4,0.6c0.9,0.4,1.9,0.7,3,0.7c0.9,0,1.7-0.3,2.5-0.8c0.5-0.4,0.9-0.5,1.4-0.5c0.7,0,1.5,0.3,2.4,0.6
					c0.9,0.4,1.9,0.7,3,0.7c0.9,0,1.7-0.3,2.5-0.8c0.5-0.4,0.9-0.5,1.4-0.5c0.7,0,1.5,0.3,2.4,0.6c0.9,0.4,1.9,0.7,3,0.7
					c0.9,0,1.7-0.3,2.5-0.8l0.3-0.2v-5.6l-1.3,1.1C27.8,16,27.3,16,26.8,16z"/>
			</g>
		</g>
	</g>
</g>
</svg>
